<?xml version="1.0" standalone="no"?>
<!DOCTYPE svg PUBLIC "-//W3C//DTD SVG 20010904//EN"
 "http://www.w3.org/TR/2001/REC-SVG-20010904/DTD/svg10.dtd">
<svg version="1.0" xmlns="http://www.w3.org/2000/svg"
 width="1184.000000pt" height="1184.000000pt" viewBox="0 0 1184.000000 1184.000000"
 preserveAspectRatio="xMidYMid meet">
<metadata>
Created by potrace 1.14, written by Peter Selinger 2001-2017
</metadata>
<g transform="translate(0.000000,1184.000000) scale(0.100000,-0.100000)"
fill="#000000" stroke="none">
<path d="M3700 11285 l0 -185 -370 0 -370 0 0 -185 0 -185 -1295 0 -1295 0 0
-555 0 -555 185 0 185 0 0 -370 0 -370 185 0 185 0 0 -185 0 -185 185 0 185 0
0 -740 0 -740 185 0 185 0 0 -370 0 -370 -370 0 -370 0 0 -185 0 -185 -185 0
-185 0 0 -370 0 -370 185 0 185 0 0 -185 0 -185 -185 0 -185 0 0 -370 0 -370
185 0 185 0 0 -185 0 -185 555 0 555 0 0 185 0 185 185 0 185 0 0 185 0 185
185 0 185 0 0 -555 0 -555 185 0 185 0 0 -740 0 -740 185 0 185 0 0 -555 0
-555 185 0 185 0 0 -185 0 -185 370 0 370 0 0 185 0 185 185 0 185 0 0 -185 0
-185 1665 0 1665 0 0 185 0 185 740 0 740 0 0 185 0 185 370 0 370 0 0 185 0
185 185 0 185 0 0 185 0 185 185 0 185 0 0 370 0 370 185 0 185 0 0 740 0 740
-185 0 -185 0 0 185 0 185 -185 0 -185 0 0 185 0 185 -555 0 -555 0 0 -370 0
-370 185 0 185 0 0 -555 0 -555 -185 0 -185 0 0 -370 0 -370 -185 0 -185 0 0
-185 0 -185 -370 0 -370 0 0 1110 0 1110 -185 0 -185 0 0 370 0 370 -185 0
-185 0 0 185 0 185 -185 0 -185 0 0 185 0 185 -185 0 -185 0 0 185 0 185 185
0 185 0 0 185 0 185 185 0 185 0 0 370 0 370 185 0 185 0 0 740 0 740 185 0
185 0 0 185 0 185 185 0 185 0 0 370 0 370 185 0 185 0 0 555 0 555 -1110 0
-1110 0 0 185 0 185 -370 0 -370 0 0 185 0 185 -1480 0 -1480 0 0 -185z"/>
</g>
</svg>
